<svg width="800" height="800" viewBox="0 0 800 800" fill="none" xmlns="http://www.w3.org/2000/svg">
<g clip-path="url(#clip0_144_556)">
<path d="M277.961 427.062C267.818 416.914 251.366 416.914 241.218 427.062L133.093 535.189C122.946 545.335 122.946 561.787 133.093 571.934C138.166 577.007 144.816 579.545 151.465 579.545C158.113 579.545 164.765 577.009 169.837 571.934L277.963 463.808C288.108 453.661 288.108 437.209 277.961 427.062Z" fill="#EAD3CB"/>
<path d="M792.392 59.6013C767.853 35.0655 735.228 21.553 700.528 21.553C665.828 21.553 633.202 35.0655 608.666 59.6029L550.387 117.881C521.42 104.081 485.637 109.14 461.686 133.093L293.174 301.605C264.205 287.805 228.421 292.866 204.471 316.818L22.8482 498.44C-7.61579 528.904 -7.61892 578.21 22.8482 608.676L169.829 755.656C200.218 786.044 249.672 786.047 280.064 755.656L461.689 574.032C486.129 549.593 490.528 513.692 476.934 485.297L645.413 316.818C669.852 292.379 674.25 256.479 660.658 228.082L792.394 96.3465C802.534 86.2044 802.537 69.7466 792.392 59.6013ZM424.942 537.285L243.318 718.91C233.186 729.041 216.702 729.041 206.571 718.91L59.5933 571.929C49.4371 561.771 49.4371 545.34 59.5933 535.184L241.218 353.56C251.375 343.403 267.807 343.403 277.964 353.56L424.945 500.542C435.097 510.696 435.095 527.131 424.942 537.285ZM608.666 280.072L443.315 445.423L333.081 335.188L498.432 169.837C508.563 159.709 525.048 159.707 535.177 169.837L608.666 243.326C618.818 253.482 618.821 269.915 608.666 280.072ZM627.038 188.209L590.293 151.463L645.411 96.3449C660.133 81.6216 679.707 73.5153 700.527 73.5153C712.358 73.5153 723.784 76.1325 734.15 81.095L627.038 188.209Z" fill="#EAD3CB"/>
</g>
<defs>
<clipPath id="clip0_144_556">
<rect width="800" height="800" fill="white"/>
</clipPath>
</defs>
</svg>
