<svg width="800" height="800" viewBox="0 0 800 800" fill="none" xmlns="http://www.w3.org/2000/svg">
<g clip-path="url(#clip0_144_493)">
<path d="M773.65 382.901H747.581V339.452C747.581 296.329 712.499 261.246 669.375 261.246H668.421C713.544 180.5 702.828 79.2483 636.252 8.25471C620.152 -8.91869 591.171 2.48285 591.171 26.0875C591.171 80.1936 550.63 104.837 512.965 104.837H339.173C247.403 104.837 171.251 172.934 158.562 261.25H130.625C87.5014 261.25 52.4186 296.332 52.4186 339.456V382.904H26.3499C11.9531 382.904 0.28125 394.576 0.28125 408.973V669.658C0.28125 741.53 58.753 800.002 130.625 800.002H669.375C741.247 800.002 799.719 741.53 799.719 669.658V408.971C799.719 394.573 788.047 382.901 773.65 382.901ZM339.173 156.973H512.963C561.597 156.973 606.408 132.539 628.675 89.103C654.313 145.122 646.582 211.465 605.472 261.248H211.45C223.561 201.829 276.228 156.973 339.173 156.973ZM104.556 339.454C104.556 325.079 116.25 313.385 130.625 313.385C146.415 313.385 656.244 313.385 669.375 313.385C683.75 313.385 695.444 325.079 695.444 339.454V382.902H104.556V339.454ZM747.581 669.657C747.581 712.78 712.499 747.863 669.375 747.863H130.625C87.5014 747.863 52.4186 712.78 52.4186 669.657V435.038C70.3186 435.038 729.536 435.038 747.581 435.038V669.657Z" fill="#EAD3CB"/>
<path d="M591.171 487.176H208.831C165.708 487.176 130.625 522.258 130.625 565.382V617.519C130.625 660.642 165.708 695.725 208.831 695.725H591.171C634.294 695.725 669.377 660.642 669.377 617.519V565.382C669.375 522.258 634.293 487.176 591.171 487.176ZM617.238 617.519C617.238 631.894 605.544 643.588 591.169 643.588H208.831C194.456 643.588 182.762 631.894 182.762 617.519V565.382C182.762 551.007 194.456 539.313 208.831 539.313H591.171C605.546 539.313 617.24 551.007 617.24 565.382V617.519H617.238Z" fill="#EAD3CB"/>
</g>
<defs>
<clipPath id="clip0_144_493">
<rect width="800" height="800" fill="white"/>
</clipPath>
</defs>
</svg>
