<svg width="800" height="712" viewBox="0 0 800 712" fill="none" xmlns="http://www.w3.org/2000/svg">
<path d="M792.342 275.061L703.706 186.425C717.591 157.278 712.5 121.277 688.401 97.1781L614.462 23.2375C583.884 -7.34375 534.128 -7.34062 503.55 23.2375L207.787 319.002C183.687 343.102 178.597 379.102 192.483 408.248L22.9343 577.795C-7.64541 608.375 -7.64541 658.128 22.9343 688.708C53.5812 719.358 103.194 719.364 133.845 688.708L303.359 519.192C324.323 529.227 349.433 529.52 371.008 519.192L459.609 607.794C469.819 618.003 486.37 618.003 496.58 607.794C506.789 597.586 506.789 581.033 496.58 570.823L411.125 485.369L448.095 448.398L533.55 533.853C543.759 544.063 560.311 544.063 570.52 533.853C580.73 523.645 580.73 507.092 570.52 496.883L485.065 411.428L522.037 374.458L607.492 459.913C617.701 470.122 634.253 470.122 644.462 459.913C654.672 449.705 654.672 433.152 644.462 422.942L559.008 337.488L595.98 300.516L681.434 385.97C691.644 396.18 708.195 396.18 718.405 385.97C728.614 375.763 728.614 359.209 718.405 349L632.95 263.545L669.92 226.575L755.375 312.03C765.584 322.239 782.136 322.239 792.345 312.03C802.551 301.823 802.551 285.27 792.342 275.061ZM96.8749 651.738C86.6561 661.956 70.1249 661.956 59.9046 651.738C49.7108 641.544 49.7108 624.959 59.9046 614.766L226.272 448.398L263.242 485.369L96.8749 651.738ZM651.434 171.122C592.147 230.409 414.944 407.609 355.67 466.884C345.451 477.1 328.919 477.103 318.7 466.884L244.758 392.944C234.564 382.75 234.564 366.166 244.758 355.972L540.522 60.2078C550.716 50.0141 567.298 50.0141 577.494 60.2078L651.434 134.15C661.648 144.364 661.65 160.903 651.434 171.122Z" fill="#EAD3CB"/>
</svg>
