<svg width="706" height="700" viewBox="0 0 706 700" fill="none" xmlns="http://www.w3.org/2000/svg">
<path d="M672.271 33.4115C627.339 -11.1372 554.227 -11.1372 509.294 33.4115C496.608 45.9896 46.4499 492.322 33.7501 504.914C-11.183 549.464 -11.183 621.955 33.7501 666.507C78.7853 711.161 151.684 711.168 196.726 666.507C221.534 641.91 656.507 210.634 672.271 195.003C717.197 150.459 717.156 77.9161 672.271 33.4115ZM541.888 65.7305C568.847 39.0018 612.713 39.0005 639.675 65.7305C647.079 73.0722 652.437 81.6828 655.775 90.8609H516.543L541.888 65.7305ZM164.13 634.19C137.109 660.983 93.3701 660.987 66.3448 634.19C39.3858 607.457 39.3858 563.965 66.3461 537.233L184.098 420.482L281.884 517.437L164.13 634.19ZM314.478 485.118L239.519 410.796H389.437L314.478 485.118ZM435.536 365.092H239.96L286.057 319.386H481.632L435.536 365.092ZM527.729 273.682H332.154L378.251 227.976H573.826L527.729 273.682ZM619.923 182.271H424.348L470.445 136.566H656.133C649.808 154.84 640.205 162.159 619.923 182.271Z" fill="#EAD3CB"/>
</svg>
