<svg width="812" height="800" viewBox="0 0 812 800" fill="none" xmlns="http://www.w3.org/2000/svg">
<path d="M807.632 628.823L807.631 628.819C804.187 616.817 791.671 610.152 779.855 613.348L779.838 613.353L779.821 613.358L649.826 650.507L538.481 576.281L538.481 576.281C534.792 573.822 530.442 572.502 526.001 572.502H66C53.5662 572.502 43.5 582.568 43.5 595.002C43.5 607.436 53.5662 617.502 66 617.502H519.177L633.507 693.723C637.242 696.214 641.591 697.502 645.987 697.502C648.056 697.502 650.137 697.218 652.158 696.649L652.168 696.646L792.168 656.646L792.172 656.645C804.12 653.211 811.038 640.764 807.632 628.823Z" fill="#EAD3CB" stroke="#EAD3CB" stroke-width="5"/>
<path d="M665.987 401.5C609.474 401.5 563.487 447.472 563.487 504C563.487 560.514 609.473 606.5 665.987 606.5C722.515 606.5 768.487 560.514 768.487 504C768.487 447.474 722.515 401.5 665.987 401.5ZM665.987 561.5C634.235 561.5 608.487 535.752 608.487 504C608.487 472.248 634.235 446.5 665.987 446.5C697.739 446.5 723.487 472.248 723.487 504C723.489 535.754 697.741 561.5 665.987 561.5Z" fill="#EAD3CB" stroke="#EAD3CB" stroke-width="5"/>
<path d="M346.001 111.499C289.487 111.499 243.5 157.471 243.5 213.999C243.5 270.527 289.473 316.499 346.001 316.499C402.529 316.499 448.501 270.512 448.501 213.999C448.501 157.473 402.528 111.499 346.001 111.499ZM346.001 271.499C314.249 271.499 288.501 245.751 288.501 213.999C288.501 182.246 314.235 156.499 346.001 156.499C377.753 156.499 403.501 182.247 403.501 213.999C403.501 245.751 377.753 271.499 346.001 271.499Z" fill="#EAD3CB" stroke="#EAD3CB" stroke-width="5"/>
<path d="M257.566 315.71L257.56 315.706C252.206 312.514 245.713 311.581 239.688 313.404C233.677 315.161 228.676 319.344 225.862 324.929L225.858 324.936L145.858 484.936L145.857 484.937C140.307 496.053 144.823 509.567 155.934 515.13L155.94 515.133C159.16 516.735 162.595 517.501 165.974 517.501C174.229 517.501 182.17 512.959 186.116 505.066L183.88 503.948L186.116 505.066L255.242 366.801L434.407 474.292L434.41 474.293C445.084 480.679 458.884 477.234 465.277 466.581C471.668 455.931 468.219 442.101 457.567 435.71L257.566 315.71Z" fill="#EAD3CB" stroke="#EAD3CB" stroke-width="5"/>
<path d="M526.001 664.5H26C13.5662 664.5 3.5 674.567 3.5 687C3.5 699.434 13.5662 709.5 26 709.5H526.001C538.435 709.5 548.501 699.434 548.501 687C548.501 674.567 538.435 664.5 526.001 664.5Z" fill="#EAD3CB" stroke="#EAD3CB" stroke-width="5"/>
</svg>
