<svg width="800" height="800" viewBox="0 0 800 800" fill="none" xmlns="http://www.w3.org/2000/svg">
<g clip-path="url(#clip0_144_540)">
<path d="M408.689 365.217H382.603V78.2653C382.603 35.1123 347.496 0.00622559 304.344 0.00622559H234.78C191.627 0.00622559 156.521 35.1139 156.521 78.2653V365.217H130.432C58.5123 365.217 0 423.73 0 495.651V669.561C0 741.481 58.5123 799.994 130.432 799.994H408.689C480.609 799.994 539.121 741.481 539.121 669.561V495.651C539.123 423.73 480.611 365.217 408.689 365.217ZM208.693 78.2653C208.693 63.881 220.396 52.1795 234.779 52.1795H304.343C318.727 52.1795 330.428 63.8825 330.428 78.2653V260.871H208.691L208.693 78.2653ZM208.693 313.046H330.43V365.219H208.693V313.046ZM486.95 669.561C486.95 712.714 451.842 747.82 408.691 747.82H130.432C87.2793 747.82 52.1732 712.713 52.1732 669.561V495.651C52.1732 452.498 87.2809 417.392 130.432 417.392H182.606H356.516H408.689C451.842 417.392 486.948 452.5 486.948 495.651L486.95 669.561Z" fill="#EAD3CB"/>
<path d="M408.689 469.564H130.433C116.026 469.564 104.347 481.243 104.347 495.65V669.56C104.347 683.966 116.026 695.646 130.433 695.646H408.689C423.095 695.646 434.775 683.966 434.775 669.56V495.651C434.777 481.243 423.097 469.564 408.689 469.564ZM382.603 643.476H156.52V521.739H382.603V643.476Z" fill="#EAD3CB"/>
<path d="M799.369 768.247L775.905 662.658C768.531 629.476 744.158 604.212 713.035 595.051V417.391H773.903C788.309 417.391 799.989 405.711 799.989 391.305V78.2653C799.987 35.1123 764.88 0.00622559 721.727 0.00622559H652.163C609.01 0.00622559 573.904 35.1139 573.904 78.2653V391.305C573.904 405.711 585.584 417.391 599.99 417.391H660.858V595.051C629.737 604.212 605.363 629.476 597.99 662.658L574.526 768.247C570.909 784.519 583.305 799.992 599.991 799.992H773.903C790.57 799.992 802.991 784.536 799.369 768.247ZM626.077 78.2653C626.077 63.881 637.78 52.1795 652.163 52.1795H721.727C736.111 52.1795 747.813 63.8825 747.813 78.2653V260.871H626.076V78.2653H626.077ZM626.077 365.217V313.046H747.814V365.219L626.077 365.217ZM632.51 747.819L648.921 673.977C652.911 656.016 668.55 643.472 686.946 643.472C705.344 643.474 720.98 656.016 724.971 673.977L741.381 747.819H632.51Z" fill="#EAD3CB"/>
</g>
<defs>
<clipPath id="clip0_144_540">
<rect width="800" height="800" fill="white"/>
</clipPath>
</defs>
</svg>
