<svg width="32" height="14" viewBox="0 0 32 14" fill="none" xmlns="http://www.w3.org/2000/svg">
<rect width="9.39552" height="1.04395" rx="0.521973" transform="matrix(0.691806 0.722083 -0.691806 0.722083 0.722168 6.46021)" fill="#605247"/>
<rect width="9.39552" height="1.04395" rx="0.521973" transform="matrix(0.691806 0.722083 -0.691806 0.722083 0.722168 6.46021)" fill="#605247"/>
<rect width="9.39552" height="1.04395" rx="0.521973" transform="matrix(0.691806 0.722083 -0.691806 0.722083 0.722168 6.46021)" fill="#605247"/>
<rect width="9.39552" height="1.04395" rx="0.521973" transform="matrix(0.691806 0.722083 -0.691806 0.722083 0.722168 6.46021)" fill="#605247"/>
<rect width="9.39552" height="1.04395" rx="0.521973" transform="matrix(0.691981 -0.721916 0.691981 0.721916 0.015625 6.78271)" fill="#605247"/>
<rect width="9.39552" height="1.04395" rx="0.521973" transform="matrix(0.691981 -0.721916 0.691981 0.721916 0.015625 6.78271)" fill="#605247"/>
<rect width="9.39552" height="1.04395" rx="0.521973" transform="matrix(0.691981 -0.721916 0.691981 0.721916 0.015625 6.78271)" fill="#605247"/>
<rect width="9.39552" height="1.04395" rx="0.521973" transform="matrix(0.691981 -0.721916 0.691981 0.721916 0.015625 6.78271)" fill="#605247"/>
<rect x="1.01514" y="6.46021" width="30.985" height="1.10493" rx="0.552467" fill="#605247"/>
<rect x="1.01514" y="6.46021" width="30.985" height="1.10493" rx="0.552467" fill="#605247"/>
<rect x="1.01514" y="6.46021" width="30.985" height="1.10493" rx="0.552467" fill="#605247"/>
<rect x="1.01514" y="6.46021" width="30.985" height="1.10493" rx="0.552467" fill="#605247"/>
</svg>
