<svg width="32" height="15" viewBox="0 0 32 15" fill="none" xmlns="http://www.w3.org/2000/svg">
<rect width="9.39552" height="1.04395" rx="0.521973" transform="matrix(-0.691806 0.722083 0.691806 0.722083 31.2778 7.44507)" fill="#605247"/>
<rect width="9.39552" height="1.04395" rx="0.521973" transform="matrix(-0.691806 0.722083 0.691806 0.722083 31.2778 7.44507)" fill="#605247"/>
<rect width="9.39552" height="1.04395" rx="0.521973" transform="matrix(-0.691806 0.722083 0.691806 0.722083 31.2778 7.44507)" fill="#605247"/>
<rect width="9.39552" height="1.04395" rx="0.521973" transform="matrix(-0.691806 0.722083 0.691806 0.722083 31.2778 7.44507)" fill="#605247"/>
<rect width="9.39552" height="1.04395" rx="0.521973" transform="matrix(-0.691981 -0.721916 -0.691981 0.721916 31.9844 7.76758)" fill="#605247"/>
<rect width="9.39552" height="1.04395" rx="0.521973" transform="matrix(-0.691981 -0.721916 -0.691981 0.721916 31.9844 7.76758)" fill="#605247"/>
<rect width="9.39552" height="1.04395" rx="0.521973" transform="matrix(-0.691981 -0.721916 -0.691981 0.721916 31.9844 7.76758)" fill="#605247"/>
<rect width="9.39552" height="1.04395" rx="0.521973" transform="matrix(-0.691981 -0.721916 -0.691981 0.721916 31.9844 7.76758)" fill="#605247"/>
<rect width="30.985" height="1.10493" rx="0.552467" transform="matrix(-1 0 0 1 30.9849 7.44507)" fill="#605247"/>
<rect width="30.985" height="1.10493" rx="0.552467" transform="matrix(-1 0 0 1 30.9849 7.44507)" fill="#605247"/>
<rect width="30.985" height="1.10493" rx="0.552467" transform="matrix(-1 0 0 1 30.9849 7.44507)" fill="#605247"/>
<rect width="30.985" height="1.10493" rx="0.552467" transform="matrix(-1 0 0 1 30.9849 7.44507)" fill="#605247"/>
</svg>
