<svg width="24" height="24" viewBox="0 0 24 24" fill="none" xmlns="http://www.w3.org/2000/svg">
<path d="M12 2.21156C5.95608 2.21156 0 4.57631 0 7.29164C0 9.6233 0 9.83855 0 9.85308C0 10.4703 0.500156 10.9705 1.11741 10.9705H5.36438C5.98163 10.9705 6.48173 10.4703 6.48173 9.85308V7.92577C6.48173 7.36327 6.90033 6.88833 7.45814 6.81731C7.45814 6.81731 8.98716 6.50325 12 6.50325C15.0128 6.50325 16.5418 6.81731 16.5418 6.81731C17.0997 6.88828 17.5182 7.36327 17.5182 7.92577V9.85313C17.5182 10.4704 18.0184 10.9705 18.6356 10.9705H22.8825C23.4998 10.9705 24 10.4704 24 9.85313C24 9.83855 24 9.6233 24 7.29169C24 4.57631 18.044 2.21156 12 2.21156Z" fill="#605247"/>
<path d="M16.3362 9.85313V7.9822L16.304 7.97555C16.2924 7.97325 14.8251 7.68567 12.0003 7.68567C9.17549 7.68567 7.70821 7.9732 7.69359 7.9762L7.66443 7.98216V9.85313C7.66443 11.1214 6.63262 12.1529 5.36465 12.1529H2.40918V18.8088C2.40918 20.4545 3.74315 21.7884 5.38855 21.7884H18.612C20.2574 21.7884 21.5914 20.4545 21.5914 18.8088V12.1529H18.6359C17.3679 12.1529 16.3362 11.1214 16.3362 9.85313ZM15.5186 17.2549V18.8449H13.9289V17.2549H15.5186ZM15.5186 14.7405V16.3306H13.9289V14.7405H15.5186ZM15.5186 12.2265V13.8162H13.9289V12.2265H15.5186ZM12.7953 17.2549V18.8449H11.2056V17.2549H12.7953ZM12.7953 14.7405V16.3306H11.2056V14.7405H12.7953ZM11.2056 13.8162V12.2265H12.7953V13.8162H11.2056ZM10.072 17.2549V18.8449H8.4823V17.2549H10.072ZM10.072 14.7405V16.3306H8.4823V14.7405H10.072ZM10.072 12.2265V13.8162H8.4823V12.2265H10.072Z" fill="#605247"/>
</svg>
