<svg width="24" height="24" viewBox="0 0 24 24" fill="none" xmlns="http://www.w3.org/2000/svg">
<path d="M14.5327 12.5251C14.0939 12.3647 14.0939 11.7523 14.0667 11.3259C13.957 9.80677 14.5055 7.48763 13.8472 6.50163C13.3812 5.91481 11.1316 5.96855 9.76065 6.04872C9.37622 6.10246 8.91016 6.18178 8.58102 6.34214C8.25188 6.50249 7.92274 6.7686 7.92274 7.00828C7.92274 7.35457 8.74603 7.30169 9.04708 7.7546C9.37622 8.23481 9.37622 9.27368 9.37622 10.1266C9.37622 11.1126 9.21121 12.4193 8.80045 12.4722C8.16938 12.4986 7.81303 11.8854 7.48389 11.4325C6.82561 10.5531 6.16734 9.45963 5.67319 8.39345C5.42656 7.83392 5.28876 7.22066 4.93241 6.98099C4.38384 6.6074 3.39643 6.58096 2.43622 6.6074C1.55852 6.63384 0.29638 6.52722 0.0497454 7.03387C-0.142472 7.5934 0.269171 8.12648 0.488597 8.58025C1.61293 10.9523 2.81978 13.0317 4.30134 15.0037C5.67319 16.8427 6.96166 18.3089 9.48506 19.0816C10.1986 19.2949 13.325 19.9081 13.9561 19.0816C14.1755 18.7618 14.1211 18.0419 14.2308 17.5088C14.3405 16.9757 14.4774 16.4426 14.9988 16.4162C15.4376 16.3898 15.6843 16.7625 15.959 17.0295C16.2609 17.3229 16.5076 17.5625 16.727 17.8295C17.2483 18.3362 17.7969 19.0287 18.4552 19.2957C19.3601 19.6693 20.7592 19.5627 22.0757 19.5089C23.1456 19.4825 23.9136 19.2693 23.9961 18.656C24.0514 18.1758 23.502 17.4832 23.1728 17.0832C22.3496 16.0972 21.966 15.8038 21.033 14.8971C20.6214 14.4971 20.1 14.0706 20.1 13.5913C20.0728 13.2978 20.3194 13.0317 20.5389 12.7383C21.4991 11.3523 22.4593 10.3663 23.337 8.92654C23.5836 8.50007 24.1603 7.51407 23.9408 7.03387C23.6942 6.50078 22.3223 6.66028 21.4718 6.66028C20.3747 6.66028 18.9485 6.5801 18.6737 6.79334C18.1524 7.13963 17.933 7.70001 17.6863 8.2331C17.1378 9.45963 16.397 10.7117 15.629 11.6449C15.3543 11.9647 14.8338 12.6309 14.5319 12.5242L14.5327 12.5251Z" fill="#605247"/>
</svg>
