<svg width="21" height="20" viewBox="0 0 21 20" fill="none" xmlns="http://www.w3.org/2000/svg">
<path d="M9.76538 2.34794C10.0065 1.65427 10.127 1.30745 10.3054 1.21132C10.4597 1.12813 10.6454 1.12813 10.7998 1.21132C10.978 1.30745 11.0985 1.65427 11.3397 2.34794L12.9337 6.93376C13.0024 7.13119 13.0366 7.2299 13.0985 7.30341C13.1531 7.36834 13.2228 7.41896 13.3014 7.45083C13.3904 7.48693 13.4949 7.48905 13.7038 7.49331L18.5578 7.59223C19.292 7.60719 19.6591 7.61468 19.8057 7.75452C19.9325 7.87555 19.9899 8.05225 19.9584 8.2247C19.9222 8.42398 19.6295 8.64575 19.0443 9.0895L15.1755 12.0225C15.0089 12.1489 14.9257 12.212 14.8749 12.2935C14.83 12.3655 14.8034 12.4474 14.7974 12.532C14.7906 12.6278 14.8208 12.7278 14.8813 12.9279L16.2873 17.5749C16.4999 18.2778 16.6062 18.6293 16.5185 18.8118C16.4426 18.9698 16.2923 19.079 16.1185 19.1024C15.9178 19.1294 15.6164 18.9197 15.0136 18.5002L11.0285 15.7272C10.8569 15.6078 10.7712 15.5481 10.678 15.5249C10.5956 15.5045 10.5094 15.5045 10.4272 15.5249C10.3339 15.5481 10.2481 15.6078 10.0765 15.7272L6.09148 18.5002C5.48868 18.9197 5.18729 19.1294 4.98656 19.1024C4.81284 19.079 4.66253 18.9698 4.5866 18.8118C4.49887 18.6293 4.6052 18.2778 4.81786 17.5749L6.22375 12.9279C6.28427 12.7278 6.31453 12.6278 6.30771 12.532C6.30169 12.4474 6.27509 12.3655 6.2302 12.2935C6.1794 12.212 6.09612 12.1489 5.92957 12.0225L2.06078 9.0895C1.47557 8.64575 1.18296 8.42398 1.14664 8.2247C1.11519 8.05225 1.17261 7.87555 1.29941 7.75452C1.44591 7.61468 1.81303 7.6072 2.54725 7.59223L7.40121 7.49331C7.61017 7.48905 7.71466 7.48693 7.80368 7.45083C7.88232 7.41896 7.95199 7.36834 8.0066 7.30341C8.06843 7.2299 8.10275 7.13119 8.17137 6.93376L9.76538 2.34794Z" fill="#EAD3CB" stroke="#EAD3CB" stroke-linecap="round" stroke-linejoin="round"/>
</svg>
