<svg width="21" height="20" viewBox="0 0 21 20" fill="none" xmlns="http://www.w3.org/2000/svg">
<path d="M9.76489 2.34794C10.006 1.65427 10.1266 1.30745 10.3049 1.21132C10.4592 1.12813 10.6449 1.12813 10.7993 1.21132C10.9775 1.30745 11.098 1.65427 11.3392 2.34794L12.9332 6.93376C13.0019 7.13119 13.0361 7.2299 13.098 7.30341C13.1526 7.36834 13.2223 7.41896 13.3009 7.45083C13.3899 7.48693 13.4944 7.48905 13.7033 7.49331L18.5573 7.59223C19.2916 7.60719 19.6586 7.61468 19.8052 7.75452C19.932 7.87555 19.9894 8.05225 19.9579 8.2247C19.9217 8.42398 19.6291 8.64575 19.0438 9.0895L15.175 12.0225C15.0084 12.1489 14.9252 12.212 14.8744 12.2935C14.8295 12.3655 14.8029 12.4474 14.7969 12.532C14.7901 12.6278 14.8203 12.7278 14.8808 12.9279L16.2868 17.5749C16.4994 18.2778 16.6057 18.6293 16.518 18.8118C16.4421 18.9698 16.2918 19.079 16.118 19.1024C15.9173 19.1294 15.6159 18.9197 15.0131 18.5002L11.028 15.7272C10.8565 15.6078 10.7707 15.5481 10.6775 15.5249C10.5951 15.5045 10.509 15.5045 10.4267 15.5249C10.3334 15.5481 10.2476 15.6078 10.076 15.7272L6.09099 18.5002C5.48819 18.9197 5.1868 19.1294 4.98607 19.1024C4.81235 19.079 4.66204 18.9698 4.58611 18.8118C4.49838 18.6293 4.60472 18.2778 4.81737 17.5749L6.22326 12.9279C6.28378 12.7278 6.31404 12.6278 6.30723 12.532C6.30121 12.4474 6.2746 12.3655 6.22972 12.2935C6.17891 12.212 6.09563 12.1489 5.92908 12.0225L2.06029 9.0895C1.47508 8.64575 1.18248 8.42398 1.14615 8.2247C1.11471 8.05225 1.17212 7.87555 1.29892 7.75452C1.44542 7.61468 1.81254 7.6072 2.54676 7.59223L7.40073 7.49331C7.60968 7.48905 7.71417 7.48693 7.80319 7.45083C7.88183 7.41896 7.9515 7.36834 8.00611 7.30341C8.06795 7.2299 8.10226 7.13119 8.17088 6.93376L9.76489 2.34794Z" fill="#F4F4F4" stroke="#F4F4F4" stroke-linecap="round" stroke-linejoin="round"/>
</svg>
